<?xml version="1.0" encoding="UTF-8" standalone="no"?>
<!-- Created with Inkscape (http://www.inkscape.org/) -->

<svg
   xmlns:dc="http://purl.org/dc/elements/1.1/"
   xmlns:cc="http://creativecommons.org/ns#"
   xmlns:rdf="http://www.w3.org/1999/02/22-rdf-syntax-ns#"
   xmlns:svg="http://www.w3.org/2000/svg"
   xmlns="http://www.w3.org/2000/svg"
   xmlns:sodipodi="http://sodipodi.sourceforge.net/DTD/sodipodi-0.dtd"
   xmlns:inkscape="http://www.inkscape.org/namespaces/inkscape"
   width="38.084499"
   height="38.083"
   id="svg2"
   version="1.1"
   inkscape:version="0.48.4 r9939"
   sodipodi:docname="ttmath_logo.svg">
  <defs
     id="defs4" />
  <sodipodi:namedview
     id="base"
     pagecolor="#ffffff"
     bordercolor="#666666"
     borderopacity="1.0"
     inkscape:pageopacity="0.0"
     inkscape:pageshadow="2"
     inkscape:zoom="11.2"
     inkscape:cx="24.511255"
     inkscape:cy="17.621314"
     inkscape:document-units="px"
     inkscape:current-layer="layer1"
     showgrid="false"
     inkscape:window-width="1440"
     inkscape:window-height="830"
     inkscape:window-x="0"
     inkscape:window-y="25"
     inkscape:window-maximized="1"
     fit-margin-top="0"
     fit-margin-left="0"
     fit-margin-right="0"
     fit-margin-bottom="0" />
  <metadata
     id="metadata7">
    <rdf:RDF>
      <cc:Work
         rdf:about="">
        <dc:format>image/svg+xml</dc:format>
        <dc:type
           rdf:resource="http://purl.org/dc/dcmitype/StillImage" />
        <dc:title />
      </cc:Work>
    </rdf:RDF>
  </metadata>
  <g
     inkscape:label="Layer 1"
     inkscape:groupmode="layer"
     id="layer1"
     transform="translate(-350.08291,-424.26987)">
    <path
       style="font-size:medium;font-style:normal;font-variant:normal;font-weight:normal;font-stretch:normal;text-indent:0;text-align:start;text-decoration:none;line-height:normal;letter-spacing:normal;word-spacing:normal;text-transform:none;direction:ltr;block-progression:tb;writing-mode:lr-tb;text-anchor:start;baseline-shift:baseline;color:#000000;fill:#231f20;fill-opacity:1;stroke:none;stroke-width:1.625;marker:none;visibility:visible;display:inline;overflow:visible;enable-background:accumulate;font-family:Sans;-inkscape-font-specification:Sans"
       d="m 369.125,424.28125 c -10.50699,0 -19.03125,8.52426 -19.03125,19.03125 0,10.50603 8.52426,19.03125 19.03125,19.03125 10.50746,0 19.03125,-8.52522 19.03125,-19.03125 0,-10.50699 -8.52379,-19.03125 -19.03125,-19.03125 z"
       id="path3773" />
    <path
       style="font-size:medium;font-style:normal;font-variant:normal;font-weight:normal;font-stretch:normal;text-indent:0;text-align:start;text-decoration:none;line-height:normal;letter-spacing:normal;word-spacing:normal;text-transform:none;direction:ltr;block-progression:tb;writing-mode:lr-tb;text-anchor:start;baseline-shift:baseline;color:#000000;fill:#ffaa35;fill-opacity:1;stroke:none;stroke-width:1.62500000000000000;marker:none;visibility:visible;display:inline;overflow:visible;enable-background:accumulate;font-family:Sans;-inkscape-font-specification:Sans"
       d="m 369.125,425.90625 c 9.62928,0 17.40625,7.77748 17.40625,17.40625 0,9.62773 -7.77697,17.40625 -17.40625,17.40625 -9.62877,0 -17.40625,-7.77852 -17.40625,-17.40625 0,-9.62877 7.77748,-17.40625 17.40625,-17.40625 z"
       id="path2999-2" />
    <path
       style="font-size:medium;font-style:normal;font-variant:normal;font-weight:normal;font-stretch:normal;text-indent:0;text-align:start;text-decoration:none;line-height:normal;letter-spacing:normal;word-spacing:normal;text-transform:none;direction:ltr;block-progression:tb;writing-mode:lr-tb;text-anchor:start;baseline-shift:baseline;color:#000000;fill:#231f20;fill-opacity:1;stroke:none;stroke-width:1.5;marker:none;visibility:visible;display:inline;overflow:visible;enable-background:accumulate;font-family:Sans;-inkscape-font-specification:Sans"
       d="m 368.1875,432.65625 -0.1875,0.5 -6.34375,16.71875 -1.40625,-4 -0.5,-1.40625 -0.84375,1.25 -2.0625,3.125 1.25,0.8125 1.25,-1.875 1.5625,4.53125 0.6875,1.9375 0.71875,-1.9375 6.90625,-18.15625 8.65625,0 0,-1.5 -9.15625,0 -0.53125,0 z"
       id="path3003-3"
       inkscape:connector-curvature="0" />
    <path
       style="font-size:medium;font-style:normal;font-variant:normal;font-weight:normal;font-stretch:normal;text-indent:0;text-align:start;text-decoration:none;line-height:normal;letter-spacing:normal;word-spacing:normal;text-transform:none;direction:ltr;block-progression:tb;writing-mode:lr-tb;text-anchor:start;baseline-shift:baseline;color:#000000;fill:#231f20;fill-opacity:1;stroke:none;stroke-width:1.5;marker:none;visibility:visible;display:inline;overflow:visible;enable-background:accumulate;font-family:Sans;-inkscape-font-specification:Sans"
       d="m 359.84375,434.34375 0,3 -3,0 0,1.5 3,0 0,3.21875 1.5,0 0,-3.21875 3,0 0,-1.5 -3,0 0,-3 -1.5,0 z"
       id="path3005-3"
       inkscape:connector-curvature="0" />
    <path
       style="font-size:medium;font-style:normal;font-variant:normal;font-weight:normal;font-stretch:normal;text-indent:0;text-align:start;text-decoration:none;line-height:normal;letter-spacing:normal;word-spacing:normal;text-transform:none;direction:ltr;block-progression:tb;writing-mode:lr-tb;text-anchor:start;baseline-shift:baseline;color:#000000;fill:#231f20;fill-opacity:1;stroke:none;stroke-width:0.9375;marker:none;visibility:visible;display:inline;overflow:visible;enable-background:accumulate;font-family:Sans;-inkscape-font-specification:Sans"
       d="m 371.0625,443.5625 0,0.46875 -0.125,4.6875 0,0.15625 0.125,0.15625 c 0,0 0.37411,0.46147 0.9375,0.9375 0.2817,0.23802 0.59509,0.49145 0.96875,0.6875 0.37366,0.19605 0.8013,0.32003 1.25,0.34375 0.93515,0.0491 1.77613,-0.36791 2.40625,-0.78125 0.63012,-0.41334 1.0625,-0.84375 1.0625,-0.84375 l 0.125,-0.15625 0,-0.1875 -0.0937,-5 0,-0.46875 -0.46875,0 -5.71875,0 -0.46875,0 z"
       id="path3009-7"
       inkscape:connector-curvature="0"
       sodipodi:nodetypes="cccccsscsccccccccc" />
    <path
       style="font-size:medium;font-style:normal;font-variant:normal;font-weight:normal;font-stretch:normal;text-indent:0;text-align:start;text-decoration:none;line-height:normal;letter-spacing:normal;word-spacing:normal;text-transform:none;direction:ltr;block-progression:tb;writing-mode:lr-tb;text-anchor:start;baseline-shift:baseline;color:#000000;fill:#231f20;fill-opacity:1;stroke:none;stroke-width:0.9375;marker:none;visibility:visible;display:inline;overflow:visible;enable-background:accumulate;font-family:Sans;-inkscape-font-specification:Sans"
       d="m 377.65625,450.375 -0.0312,0.0312 -0.21875,0.125 c -2.30252,1.65271 -4.15395,1.52806 -6.1125,-0.1562 -1.78014,2.66032 -3.73192,7.25254 -4.29375,8.18745 -0.56183,0.93491 -0.17739,2.37424 -0.28125,3.375 l 0.5625,-0.0312 8.03125,-0.71875 0.125,-0.0312 0.0937,-0.0625 6.96875,-4.5625 0.1875,-0.125 0.0937,-0.0625 -0.0625,-0.3125 c 0.0108,-0.11043 0.0366,-0.43638 0,-0.96875 -0.0466,-1.03041 -0.48309,-1.60724 -0.93745,-2.24995 -0.5467,-0.58055 -1.33798,-1.08483 -2.15625,-1.5 -0.91162,-0.46254 -1.66155,-0.7891 -1.71875,-0.8125 l -0.0625,-0.0312 -0.1875,-0.0937 z"
       id="path3013-6"
       inkscape:connector-curvature="0"
       sodipodi:nodetypes="cccczcccccccccccscccc" />
    <path
       style="font-size:medium;font-style:normal;font-variant:normal;font-weight:normal;font-stretch:normal;text-indent:0;text-align:start;text-decoration:none;line-height:normal;letter-spacing:normal;word-spacing:normal;text-transform:none;direction:ltr;block-progression:tb;writing-mode:lr-tb;text-anchor:start;baseline-shift:baseline;color:#000000;fill:#231f20;fill-opacity:1;stroke:none;stroke-width:0.625;marker:none;visibility:visible;display:inline;overflow:visible;enable-background:accumulate;font-family:Sans;-inkscape-font-specification:Sans"
       d="m 374.0625,438.21875 c -1.68685,0.1362 -5.3125,0.8125 -5.3125,0.8125 l -0.125,0.0312 -0.0625,0.125 -1.375,2.09375 -0.0312,0.0625 0,0.0937 0.1875,6.15625 0.0312,0.15625 0.125,0.0937 0.3125,0.21875 0.5,0.3125 -0.0312,-0.59375 -0.0937,-5.90625 c 0.081,-0.0694 0.35604,-0.32331 0.6875,-0.4375 l 0.0312,0 c 0.0323,-0.01 0.0883,0.01 0.125,0 l 1.46875,-0.0937 c 0.1093,0.60186 0.39332,1.20774 0.4812,1.8125 1.27397,-0.0782 2.40491,-0.17552 3.5031,-0.16892 1.08715,0.0103 2.17115,0.13001 3.2344,0.12517 l 0.0312,-0.6125 c 0,0 0.0422,-0.16533 0.0625,-0.28125 l 0.40625,-0.9375 c 0.004,-0.005 -0.004,-0.0267 0,-0.0312 l 0.0312,0 c 0.17093,-0.1709 0.53319,-0.25585 0.8125,-0.375 0.26159,-0.11159 0.42068,-0.28594 0.75,-0.375 l 0.0312,0 0.125,-0.0312 2.28125,-0.1875 0.0312,0 0.28125,0 0,-0.0312 0,-0.28125 0,-0.71875 0,-0.25 -0.25,-0.0625 -3.75,-0.71875 c -0.0114,-10e-4 -0.02,0.001 -0.0312,0 -1.37083,-0.13192 -2.78705,-0.1247 -4.40625,0 l -0.0312,0 -0.0312,0 z"
       id="path3017-6"
       inkscape:connector-curvature="0"
       sodipodi:nodetypes="ccccccccccccccccccccccccccsccccccccccccccccc" />
  </g>
</svg>
